<svg width="39" height="42" fill="none" xmlns="http://www.w3.org/2000/svg"><path fill-rule="evenodd" clip-rule="evenodd" d="M29.541 1 38 9.576V37.19c0 2.104-1.682 3.81-3.758 3.81H10.758C8.682 41 7 39.294 7 37.19V4.81C7 2.706 8.682 1 10.758 1H29.54Z" fill="#fff"/><path fill-rule="evenodd" clip-rule="evenodd" d="M29.995 0 39 9.005V38a4 4 0 0 1-4 4H10a4 4 0 0 1-4-4V4a4 4 0 0 1 4-4h19.995ZM28 1.999 10 2a2 2 0 0 0-1.995 1.85L8 4v34a2 2 0 0 0 1.85 1.995L10 40h25a2 2 0 0 0 1.995-1.85L37 38V11h-5a4 4 0 0 1-4-4l-.001-5.001Zm2 .834L30 7a2 2 0 0 0 1.85 1.995L32 9h4.167l-6.168-6.167Z" fill="#979CA9"/><path fill-rule="evenodd" clip-rule="evenodd" d="M2 18h30a2 2 0 0 1 2 2v14a2 2 0 0 1-2 2H2a2 2 0 0 1-2-2V20a2 2 0 0 1 2-2Z" fill="#CF6662"/><path fill-rule="evenodd" clip-rule="evenodd" d="M7.87 31a.28.28 0 0 0 .199-.072.25.25 0 0 0 .077-.192v-2.574h1.617c.887 0 1.584-.203 2.09-.61.505-.407.758-1.007.758-1.799 0-.8-.253-1.408-.759-1.826-.505-.418-1.202-.627-2.09-.627H6.816a.25.25 0 0 0-.193.077.28.28 0 0 0-.071.198v7.161c0 .073.025.136.077.187a.255.255 0 0 0 .187.077H7.87Zm1.838-4.07H8.124v-2.398h1.584c.44 0 .768.106.984.319.216.213.325.51.325.891 0 .389-.112.684-.336.886-.224.201-.548.302-.973.302Zm9.531 3.338c-.524.488-1.333.732-2.425.732h-2.74a.255.255 0 0 1-.187-.077.255.255 0 0 1-.077-.187v-7.161a.28.28 0 0 1 .072-.198.25.25 0 0 1 .193-.077h2.684c2.163 0 3.267.997 3.31 2.992.013.365.02.627.022.787v.071c0 .14-.007.422-.021.847-.03 1.027-.307 1.784-.831 2.271Zm-2.48-.544H15.36v-5.148h1.342c.617 0 1.067.141 1.354.424.286.282.436.724.45 1.325.015.425.022.697.022.814v.049c-.001.132-.009.391-.021.776-.015.63-.158 1.082-.43 1.353-.27.271-.71.407-1.32.407Zm6.236 1.199a.268.268 0 0 1-.198.077h-.99a.255.255 0 0 1-.186-.077.255.255 0 0 1-.077-.187v-7.161a.28.28 0 0 1 .071-.198.25.25 0 0 1 .193-.077h4.785c.08 0 .146.026.198.077a.268.268 0 0 1 .076.198v.792a.255.255 0 0 1-.076.187.268.268 0 0 1-.198.077h-3.52v2.068h3.3c.08 0 .146.026.197.077a.255.255 0 0 1 .078.187v.792a.255.255 0 0 1-.078.187.268.268 0 0 1-.198.077h-3.3v2.717a.255.255 0 0 1-.076.187Z" fill="#fff"/></svg>