<svg width="24" height="24" fill="none" xmlns="http://www.w3.org/2000/svg"><mask id="a" style="mask-type:luminance" maskUnits="userSpaceOnUse" x="0" y="0" width="24" height="24"><circle cx="12" cy="12" r="12" fill="#fff"/></mask><g mask="url(#a)"><path fill="#EDEEEF" d="M0 0h24v24H0z"/><path fill-rule="evenodd" clip-rule="evenodd" d="M20.847 24H2.85v-4.125a1.808 1.808 0 0 1 .646-1.392 29.122 29.122 0 0 1 5.275-3.415.165.165 0 0 0 .093-.149v-1.724a4.168 4.168 0 0 1-.513-1.413c-.196-.017-.452-.294-.73-1.281-.357-1.274-.022-1.527.303-1.524-.172-.742-.61-3.327 1.297-4.501a1.038 1.038 0 0 1-.363-.787s2.18.248 3.226.03c1.047-.217 2.18.617 2.363 1.417 0 0 2.133 0 1.305 3.85.332-.014.695.217.33 1.523-.273.99-.545 1.267-.73 1.281a4.17 4.17 0 0 1-.513 1.414v1.724c0 .063.036.12.093.148a29.12 29.12 0 0 1 5.272 3.407c.41.343.648.854.646 1.392L20.847 24Z" fill="#979CA9"/></g></svg>