<svg width="39" height="42" fill="none" xmlns="http://www.w3.org/2000/svg"><path fill-rule="evenodd" clip-rule="evenodd" d="M29.541 1 38 9.576V37.19c0 2.104-1.682 3.81-3.758 3.81H10.758C8.682 41 7 39.294 7 37.19V4.81C7 2.706 8.682 1 10.758 1H29.54Z" fill="#fff"/><path fill-rule="evenodd" clip-rule="evenodd" d="M29.995 0 39 9.005V38a4 4 0 0 1-4 4H10a4 4 0 0 1-4-4V4a4 4 0 0 1 4-4h19.995ZM28 1.999 10 2a2 2 0 0 0-1.995 1.85L8 4v34a2 2 0 0 0 1.85 1.995L10 40h25a2 2 0 0 0 1.995-1.85L37 38V11h-5a4 4 0 0 1-4-4l-.001-5.001Zm2 .834L30 7a2 2 0 0 0 1.85 1.995L32 9h4.167l-6.168-6.167Z" fill="#979CA9"/><path fill-rule="evenodd" clip-rule="evenodd" d="M2 18h31a2 2 0 0 1 2 2v14a2 2 0 0 1-2 2H2a2 2 0 0 1-2-2V20a2 2 0 0 1 2-2Z" fill="#5B85CE"/><path fill-rule="evenodd" clip-rule="evenodd" d="M14.046 31.11c.997 0 1.777-.253 2.338-.759.56-.506.856-1.258.885-2.255.015-.425.022-.737.022-.935 0-.205-.007-.52-.022-.946-.03-.975-.332-1.723-.907-2.244-.576-.52-1.348-.781-2.316-.781-.975 0-1.749.26-2.321.781-.572.52-.873 1.269-.902 2.244-.007.213-.011.528-.011.946v.197c.001.315.005.56.011.738.03.997.323 1.749.88 2.255.557.506 1.338.759 2.343.759Zm-5.275-.841c-.524.487-1.332.731-2.425.731H3.607a.255.255 0 0 1-.187-.077.255.255 0 0 1-.077-.187v-7.161a.28.28 0 0 1 .071-.198.25.25 0 0 1 .193-.077h2.684c2.163 0 3.267.997 3.311 2.992.013.365.02.627.022.787v.071c0 .14-.007.422-.022.847-.03 1.027-.306 1.784-.83 2.271Zm-3.877-.545h1.397c.609 0 1.049-.136 1.32-.407.271-.271.414-.722.429-1.353.013-.385.02-.644.022-.776v-.049c0-.117-.007-.389-.022-.814-.015-.601-.165-1.043-.451-1.325-.286-.283-.737-.424-1.353-.424H4.894v5.148Zm7.98-.335c.29.297.68.445 1.172.445.491 0 .88-.147 1.166-.44.286-.293.44-.744.462-1.353.015-.44.022-.737.022-.891 0-.169-.007-.466-.022-.891-.022-.601-.18-1.05-.473-1.348-.293-.297-.678-.445-1.155-.445-.484 0-.873.148-1.166.445-.293.297-.447.747-.462 1.348a23.2 23.2 0 0 0-.01.672l-.001.219c0 .374.004.671.011.891.015.601.167 1.05.457 1.348Zm8.817 1.721c.653 0 1.221-.112 1.705-.335.484-.224.86-.53 1.127-.919.268-.389.41-.825.424-1.309a.185.185 0 0 0-.06-.165.243.243 0 0 0-.171-.066h-1.067c-.088 0-.154.02-.198.06a.464.464 0 0 0-.11.215c-.11.455-.303.775-.578.962-.275.188-.632.281-1.072.281-1.049 0-1.595-.587-1.639-1.76a29.508 29.508 0 0 1-.011-.935v-.197c.001-.312.005-.551.011-.716.044-1.173.59-1.76 1.639-1.76.447 0 .807.093 1.078.28.271.188.462.508.572.963.03.103.066.174.11.215.044.04.11.06.198.06h1.067c.059 0 .112-.02.16-.06a.187.187 0 0 0 .071-.149v-.022a2.387 2.387 0 0 0-.424-1.309c-.267-.389-.643-.695-1.127-.918-.484-.224-1.052-.336-1.705-.336-1.005 0-1.786.262-2.343.787-.557.524-.854 1.255-.891 2.194a31.29 31.29 0 0 0-.011.99c0 .447.004.77.011.968.037.953.332 1.688.886 2.205.553.518 1.336.776 2.348.776Zm5.434-.308c-.095.132-.209.198-.341.198H25.64a.23.23 0 0 1-.16-.066.215.215 0 0 1-.071-.165c0-.03.015-.073.044-.132l2.453-3.564-2.299-3.41a.237.237 0 0 1-.044-.132c0-.066.024-.121.072-.165a.23.23 0 0 1 .159-.066h1.155c.132 0 .246.07.341.209l1.606 2.354 1.617-2.354c.08-.14.194-.209.341-.209h1.089a.23.23 0 0 1 .16.066.215.215 0 0 1 .071.165c0 .03-.015.073-.044.132l-2.299 3.41 2.464 3.564a.293.293 0 0 1 .033.132.224.224 0 0 1-.231.231H30.92c-.132 0-.246-.066-.341-.198l-1.738-2.475-1.716 2.475Z" fill="#fff"/></svg>