<?xml version="1.0" encoding="utf-8"?><svg viewBox="0 0 90 42" xmlns="http://www.w3.org/2000/svg" xmlns:xlink="http://www.w3.org/1999/xlink"><style>:root>svg{display:none}:root>svg:target{display:block}</style><svg fill="none" viewBox="0 0 10 6" id="arrow" xmlns="http://www.w3.org/2000/svg">
    <path fill-rule="evenodd" clip-rule="evenodd" d="M8.66.326A.787.787 0 1 1 9.765 1.45L5.547 5.6a.787.787 0 0 1-1.106 0L.234 1.447A.787.787 0 0 1 1.341.327l3.654 3.606L8.66.326Z" fill="#979CA9"/>
</svg><svg fill="none" viewBox="0 0 10 7" id="check" xmlns="http://www.w3.org/2000/svg">
    <path fill-rule="evenodd" clip-rule="evenodd" d="M8.95 1.05a1 1 0 0 1 0 1.414L4.707 6.707a.995.995 0 0 1-.53.277l-.118.014h-.118a.996.996 0 0 1-.648-.29L1.172 4.585a1 1 0 1 1 1.414-1.414L4 4.585 7.536 1.05a1 1 0 0 1 1.414 0Z" fill="#CBCFD8"/>
</svg><svg fill="none" viewBox="0 0 10 7" id="check-white" xmlns="http://www.w3.org/2000/svg">
    <path fill-rule="evenodd" clip-rule="evenodd" d="M8.95 1.05a1 1 0 0 1 0 1.414L4.707 6.707a.995.995 0 0 1-.53.277l-.118.014h-.118a.996.996 0 0 1-.648-.29L1.172 4.585a1 1 0 1 1 1.414-1.414L4 4.585 7.536 1.05a1 1 0 0 1 1.414 0Z" fill="#fff"/>
</svg><svg fill="none" viewBox="0 0 39 42" id="excel" xmlns="http://www.w3.org/2000/svg">
    <path fill-rule="evenodd" clip-rule="evenodd" d="M29.541 1 38 9.576V37.19c0 2.104-1.682 3.81-3.758 3.81H10.758C8.682 41 7 39.294 7 37.19V4.81C7 2.706 8.682 1 10.758 1H29.54Z" fill="#fff"/>
    <path fill-rule="evenodd" clip-rule="evenodd" d="M29.995 0 39 9.005V38a4 4 0 0 1-4 4H10a4 4 0 0 1-4-4V4a4 4 0 0 1 4-4h19.995ZM28 1.999 10 2a2 2 0 0 0-1.995 1.85L8 4v34a2 2 0 0 0 1.85 1.995L10 40h25a2 2 0 0 0 1.995-1.85L37 38V11h-5a4 4 0 0 1-4-4l-.001-5.001Zm2 .834V7a2 2 0 0 0 1.85 1.995L32 9h4.167l-6.168-6.167Z" fill="#5B85CE"/>
    <path fill-rule="evenodd" clip-rule="evenodd" d="M2 18h30a2 2 0 0 1 2 2v14a2 2 0 0 1-2 2H2a2 2 0 0 1-2-2V20a2 2 0 0 1 2-2Z" fill="#5B85CE"/>
    <path fill-rule="evenodd" clip-rule="evenodd" d="M24.992 30.835c-.473.183-1.021.275-1.645.275-.66 0-1.224-.099-1.694-.297-.469-.198-.825-.458-1.066-.781a1.845 1.845 0 0 1-.386-1.056.23.23 0 0 1 .066-.16.215.215 0 0 1 .166-.071h1c.081 0 .147.018.198.055a.585.585 0 0 1 .143.154c.074.25.24.458.501.627.26.169.618.253 1.073.253.513 0 .9-.086 1.16-.258a.808.808 0 0 0 .39-.71.672.672 0 0 0-.197-.495c-.133-.132-.332-.247-.6-.346a13.992 13.992 0 0 0-1.194-.358c-.865-.205-1.5-.477-1.902-.814-.404-.337-.605-.821-.605-1.452 0-.425.117-.805.352-1.139.234-.333.57-.595 1.006-.786.436-.19.944-.286 1.524-.286.608 0 1.134.106 1.578.319.444.213.781.479 1.012.797.231.32.354.637.369.952a.23.23 0 0 1-.067.16.215.215 0 0 1-.165.071h-1.044c-.162 0-.272-.066-.33-.198-.037-.235-.18-.43-.43-.588-.249-.158-.557-.237-.923-.237-.404 0-.721.077-.952.231-.231.154-.346.378-.346.671 0 .198.058.363.175.495.118.132.301.247.55.346.25.1.613.211 1.09.336.652.147 1.171.312 1.556.495s.67.414.852.693c.184.279.276.634.276 1.067 0 .477-.13.89-.391 1.238-.26.348-.627.614-1.1.797ZM7.683 31c.132 0 .246-.066.341-.198l1.716-2.475 1.739 2.475c.095.132.209.198.34.198h1.177a.224.224 0 0 0 .231-.231.293.293 0 0 0-.033-.132l-2.464-3.564 2.3-3.41a.339.339 0 0 0 .043-.132.215.215 0 0 0-.071-.165.23.23 0 0 0-.16-.066h-1.088c-.147 0-.26.07-.341.209l-1.618 2.354-1.606-2.354c-.095-.14-.209-.209-.34-.209H6.692a.23.23 0 0 0-.159.066.215.215 0 0 0-.072.165.24.24 0 0 0 .044.132l2.3 3.41-2.454 3.564a.338.338 0 0 0-.044.132c0 .066.024.121.072.165a.23.23 0 0 0 .16.066h1.143Zm11.639 0c.08 0 .146-.026.198-.077a.255.255 0 0 0 .076-.187v-.792a.255.255 0 0 0-.076-.187.268.268 0 0 0-.198-.077h-3.487v-6.116a.26.26 0 0 0-.072-.192.26.26 0 0 0-.193-.072h-1.034a.265.265 0 0 0-.186.072.25.25 0 0 0-.077.192v7.172c0 .073.025.136.077.187a.255.255 0 0 0 .187.077h4.784Z" fill="#fff"/>
</svg><svg fill="none" viewBox="0 0 90 41" id="logo" xmlns="http://www.w3.org/2000/svg">
    <g fill-rule="evenodd" clip-rule="evenodd">
        <path d="M38.969 14.437v3.756c.482-.499 1.238-.95 2.152-.95 1.962 0 3.499 1.607 3.499 3.658 0 2.044-1.537 3.645-3.499 3.645a2.994 2.994 0 0 1-2.158-.955l-.034-.036v.822h-1.345v-9.94h1.385ZM61.336 37.5v-9.94h-1.385v9.94h1.385Zm10.085-6.964v-1.43h-1.372v1.43h-.916v1.324h.916v3.117c.012.848.287 1.533.797 1.984.419.37.97.562 1.61.562.13 0 .264-.008.4-.024l.122-.014v-1.279l-.146.01-.047.002c-.45.02-.793-.076-1.02-.287-.228-.213-.344-.553-.344-1.01V31.86h1.53v-1.324h-1.53ZM43.39 32.541c-.021-1.361-1.086-2.173-2.857-2.173-1.772 0-2.97.917-3.054 2.337l-.008.143h1.417l.014-.12.005-.037c.134-.902 1.065-1.038 1.613-1.038h.045c.933.009 1.466.3 1.466.8 0 .328-.234.674-1.948.769l-.107.005c-1.908.1-2.876.85-2.876 2.228 0 1.59 1.372 2.178 2.685 2.201h.08c.926 0 1.683-.257 2.21-.748.03.19.082.364.152.514l.037.079h1.387l-.075-.186-.013-.034a3.47 3.47 0 0 1-.173-1.008v-3.732Zm12.067-2.173c1.772 0 2.836.812 2.857 2.173v3.732c0 .3.079.75.174 1.008l.013.034.075.186h-1.387l-.037-.078a1.95 1.95 0 0 1-.153-.515c-.527.491-1.283.749-2.209.749l-.08-.001c-1.313-.023-2.686-.61-2.686-2.201 0-1.379.968-2.128 2.877-2.228l.106-.005c1.714-.095 1.949-.441 1.949-.77 0-.5-.534-.79-1.467-.799h-.045c-.548 0-1.478.136-1.612 1.038l-.005.038-.014.12h-1.417l.008-.144c.083-1.42 1.282-2.337 3.053-2.337Zm34.245 2.172c-.168-1.34-1.266-2.172-2.878-2.172-1.91 0-2.78 1.101-2.78 2.124 0 1.354 1.052 1.776 2.748 2.019l.101.014c1.58.225 1.612.566 1.612.872v.04c-.016.469-.548.935-1.55.935-.934 0-1.621-.451-1.75-1.15l-.02-.11H83.79l.02.152.006.044c.208 1.436 1.435 2.362 3.138 2.362 1.733 0 2.897-.932 2.897-2.32 0-1.625-1.39-1.94-2.606-2.137l-.278-.044c-1.257-.2-1.52-.359-1.537-.68v-.036c0-.449.612-.8 1.394-.8.81 0 1.353.354 1.488.972l.024.106h1.387l-.017-.15-.004-.04Zm-24.227 3.063-1.865-5.066h-1.498l2.63 6.79-.349.924c-.264.695-.58.907-1.303.868l-.076-.005-.146-.01v1.281l.122.013.076.007c.127.012.249.018.366.018 1.125 0 1.815-.534 2.264-1.724l3.09-8.162h-1.483l-1.828 5.066Zm14.547-5.235c1.513 0 2.755.873 3.253 2.281l.016.047.06.178h-1.463l-.038-.073c-.38-.73-1.047-1.148-1.828-1.148-1.173 0-2.127 1.064-2.127 2.372 0 1.294.954 2.347 2.127 2.347.78 0 1.436-.403 1.807-1.108l.02-.039.038-.075h1.463l-.059.178c-.473 1.436-1.725 2.329-3.27 2.329-1.935 0-3.51-1.63-3.51-3.632 0-2.016 1.575-3.657 3.51-3.657Zm-31.85 0c1.64 0 2.705 1.142 2.726 2.915V37.5h-1.372v-4.203c0-1.015-.579-1.645-1.511-1.645-.933 0-1.612.663-1.63 1.583V37.5H45v-6.964h1.346v.52c.482-.447 1.118-.689 1.826-.689Zm27.186.169v6.964h-1.385v-6.964h1.385Zm-20.172 3.888c.628-.044 1.3-.125 1.77-.397v.761l-.001.038c-.048 1.129-1.125 1.532-2.125 1.532-.431 0-1.434-.088-1.434-.904 0-.427.19-.93 1.665-1.021l.125-.009Zm-13.155-.397c-.47.272-1.142.352-1.77.397l-.125.009c-1.475.091-1.665.594-1.665 1.02 0 .817 1.003.905 1.434.905 1 0 2.077-.403 2.125-1.532l.001-.038v-.76Zm33.327-4.233V28.21h-1.385v1.584h1.385Zm-3.793-5.419v-9.94H70.18v3.757l-.028-.029c-.484-.487-1.228-.92-2.125-.92-1.969 0-3.511 1.606-3.511 3.657 0 2.044 1.542 3.645 3.511 3.645.823 0 1.632-.372 2.192-.991v.822h1.346Zm-18.527-7.132c1.77 0 2.835.811 2.857 2.173v3.733c0 .3.078.75.173 1.008l.013.034.075.186h-1.387l-.037-.079a1.944 1.944 0 0 1-.152-.514c-.528.49-1.284.748-2.21.748h-.08c-1.313-.023-2.685-.61-2.685-2.201 0-1.379.967-2.128 2.876-2.228l.107-.005c1.713-.095 1.948-.441 1.948-.77 0-.5-.534-.79-1.466-.8h-.046c-.548 0-1.478.137-1.612 1.04l-.005.037-.014.12h-1.417l.008-.145c.083-1.419 1.282-2.336 3.054-2.336Zm10.364 2.915c-.02-1.773-1.086-2.915-2.726-2.915-.707 0-1.343.242-1.826.689v-.52h-1.345v6.963h1.385v-4.265c.017-.919.697-1.582 1.63-1.582.932 0 1.511.63 1.511 1.644v4.204h1.372v-4.218Zm-14.255-2.906.048.005.12.014v1.355l-.144-.008c-.62-.034-1.16.132-1.52.47-.317.299-.484.712-.494 1.229v4.059h-1.385v-6.964h1.346v.522c.51-.498 1.265-.758 2.03-.682Zm16.754 3.661c0-1.33.934-2.373 2.126-2.373 1.188 0 2.153 1.065 2.153 2.373 0 1.272-.986 2.347-2.153 2.347-1.172 0-2.126-1.053-2.126-2.347Zm-24.78-2.373c-1.187 0-2.152 1.065-2.152 2.373 0 1.272.985 2.347 2.152 2.347 1.166 0 2.114-1.053 2.114-2.347 0-1.33-.929-2.373-2.114-2.373Zm11.582 2.764c.646-.044 1.347-.12 1.833-.401v.761l-.001.038c-.048 1.129-1.125 1.532-2.125 1.532-.431 0-1.434-.088-1.434-.904 0-.428.19-.93 1.665-1.022l.062-.004Z" fill="#fff"/>
        <path d="M30.723 25.749c.028-8.438-6.84-15.326-15.31-15.355-1.31-.004-2.595.16-3.81.464v3.913l.105-.036a11.58 11.58 0 0 1 3.693-.59c6.394.02 11.58 5.22 11.558 11.591 0 .03-.002.058-.003.087l-.002.068h.003l-.024 13.596h3.743l.045-13.304h-.01l.007-.217c.003-.072.005-.144.005-.217Zm-26.958-.124.034-9.986-.07.081A15.2 15.2 0 0 0 0 25.645C-.028 34.084 6.84 40.971 15.31 41a15.386 15.386 0 0 0 9.587-3.319v-5.418l-.063.09a11.603 11.603 0 0 1-9.511 4.897C8.968 37.228 3.81 32.093 3.767 25.777h-.002v-.152Z" fill="#5881C1"/>
        <path d="M9.552.012 5.797 0v25.75h.002l.001.153c.079 5.047 4.18 9.19 9.32 9.32h.045l.17.002a9.55 9.55 0 0 0 6.618-2.607 9.37 9.37 0 0 0 2.97-6.626 9.36 9.36 0 0 0-2.63-6.766 9.542 9.542 0 0 0-6.69-2.943c-2.008-.037-3.915.511-5.536 1.581l-.52.367L9.553.012Zm1.785 21.55a5.831 5.831 0 0 1 4.04-1.591h.008a5.824 5.824 0 0 1 4.208 1.797 5.714 5.714 0 0 1 1.605 4.13 5.719 5.719 0 0 1-1.813 4.046 5.81 5.81 0 0 1-4.17 1.59c-3.22-.081-5.772-2.74-5.691-5.926a5.72 5.72 0 0 1 1.813-4.045Z" fill="#A3CF62"/>
    </g>
</svg><svg fill="none" viewBox="0 0 39 42" id="pdf" xmlns="http://www.w3.org/2000/svg">
    <path fill-rule="evenodd" clip-rule="evenodd" d="M29.541 1 38 9.576V37.19c0 2.104-1.682 3.81-3.758 3.81H10.758C8.682 41 7 39.294 7 37.19V4.81C7 2.706 8.682 1 10.758 1H29.54Z" fill="#fff"/>
    <path fill-rule="evenodd" clip-rule="evenodd" d="M29.995 0 39 9.005V38a4 4 0 0 1-4 4H10a4 4 0 0 1-4-4V4a4 4 0 0 1 4-4h19.995ZM28 1.999 10 2a2 2 0 0 0-1.995 1.85L8 4v34a2 2 0 0 0 1.85 1.995L10 40h25a2 2 0 0 0 1.995-1.85L37 38V11h-5a4 4 0 0 1-4-4l-.001-5.001Zm2 .834V7a2 2 0 0 0 1.85 1.995L32 9h4.167l-6.168-6.167Z" fill="#979CA9"/>
    <path fill-rule="evenodd" clip-rule="evenodd" d="M2 18h30a2 2 0 0 1 2 2v14a2 2 0 0 1-2 2H2a2 2 0 0 1-2-2V20a2 2 0 0 1 2-2Z" fill="#CF6662"/>
    <path fill-rule="evenodd" clip-rule="evenodd" d="M7.87 31a.28.28 0 0 0 .199-.072.25.25 0 0 0 .077-.192v-2.574h1.617c.887 0 1.584-.203 2.09-.61.505-.407.758-1.007.758-1.799 0-.8-.253-1.408-.759-1.826-.505-.418-1.202-.627-2.09-.627H6.816a.25.25 0 0 0-.193.077.28.28 0 0 0-.071.198v7.161c0 .073.025.136.077.187a.255.255 0 0 0 .187.077H7.87Zm1.838-4.07H8.124v-2.398h1.584c.44 0 .768.106.984.319.216.213.325.51.325.891 0 .389-.112.684-.336.886-.224.201-.548.302-.973.302Zm9.531 3.338c-.524.488-1.333.732-2.425.732h-2.74a.255.255 0 0 1-.187-.077.255.255 0 0 1-.077-.187v-7.161a.28.28 0 0 1 .072-.198.25.25 0 0 1 .193-.077h2.684c2.163 0 3.267.997 3.31 2.992.013.365.02.627.022.787v.071c0 .14-.007.422-.021.847-.03 1.027-.307 1.784-.831 2.271Zm-2.48-.544H15.36v-5.148h1.342c.617 0 1.067.141 1.354.424.286.282.436.724.45 1.325.015.425.022.697.022.814v.049c-.001.132-.009.391-.021.776-.015.63-.158 1.082-.43 1.353-.27.271-.71.407-1.32.407Zm6.236 1.199a.268.268 0 0 1-.198.077h-.99a.255.255 0 0 1-.186-.077.255.255 0 0 1-.077-.187v-7.161a.28.28 0 0 1 .071-.198.25.25 0 0 1 .193-.077h4.785c.08 0 .146.026.198.077a.268.268 0 0 1 .076.198v.792a.255.255 0 0 1-.076.187.268.268 0 0 1-.198.077h-3.52v2.068h3.3c.08 0 .146.026.197.077a.255.255 0 0 1 .078.187v.792a.255.255 0 0 1-.078.187.268.268 0 0 1-.198.077h-3.3v2.717a.255.255 0 0 1-.076.187Z" fill="#fff"/>
</svg><svg fill="none" viewBox="0 0 24 24" id="user" xmlns="http://www.w3.org/2000/svg">
    <mask id="ga" style="mask-type:luminance" maskUnits="userSpaceOnUse" x="0" y="0" width="24" height="24">
        <circle cx="12" cy="12" r="12" fill="#fff"/>
    </mask>
    <g mask="url(#ga)">
        <path fill="#EDEEEF" d="M0 0h24v24H0z"/>
        <path fill-rule="evenodd" clip-rule="evenodd" d="M20.847 24H2.85v-4.125a1.808 1.808 0 0 1 .646-1.392 29.122 29.122 0 0 1 5.275-3.415.165.165 0 0 0 .093-.149v-1.724a4.168 4.168 0 0 1-.513-1.413c-.196-.017-.452-.294-.73-1.281-.357-1.274-.022-1.527.303-1.524-.172-.742-.61-3.327 1.297-4.501a1.038 1.038 0 0 1-.363-.787s2.18.248 3.226.03c1.047-.217 2.18.617 2.363 1.417 0 0 2.133 0 1.305 3.85.332-.014.695.217.33 1.523-.273.99-.545 1.267-.73 1.281a4.17 4.17 0 0 1-.513 1.414v1.724c0 .063.036.12.093.148a29.12 29.12 0 0 1 5.272 3.407c.41.343.648.854.646 1.392L20.847 24Z" fill="#979CA9"/>
    </g>
</svg><svg fill="none" viewBox="0 0 39 42" id="word" xmlns="http://www.w3.org/2000/svg">
    <path fill-rule="evenodd" clip-rule="evenodd" d="M29.541 1 38 9.576V37.19c0 2.104-1.682 3.81-3.758 3.81H10.758C8.682 41 7 39.294 7 37.19V4.81C7 2.706 8.682 1 10.758 1H29.54Z" fill="#fff"/>
    <path fill-rule="evenodd" clip-rule="evenodd" d="M29.995 0 39 9.005V38a4 4 0 0 1-4 4H10a4 4 0 0 1-4-4V4a4 4 0 0 1 4-4h19.995ZM28 1.999 10 2a2 2 0 0 0-1.995 1.85L8 4v34a2 2 0 0 0 1.85 1.995L10 40h25a2 2 0 0 0 1.995-1.85L37 38V11h-5a4 4 0 0 1-4-4l-.001-5.001Zm2 .834V7a2 2 0 0 0 1.85 1.995L32 9h4.167l-6.168-6.167Z" fill="#979CA9"/>
    <path fill-rule="evenodd" clip-rule="evenodd" d="M2 18h31a2 2 0 0 1 2 2v14a2 2 0 0 1-2 2H2a2 2 0 0 1-2-2V20a2 2 0 0 1 2-2Z" fill="#5B85CE"/>
    <path fill-rule="evenodd" clip-rule="evenodd" d="M14.046 31.11c.997 0 1.777-.253 2.338-.759.56-.506.856-1.258.885-2.255.015-.425.022-.737.022-.935 0-.205-.007-.52-.022-.946-.03-.975-.332-1.723-.907-2.244-.576-.52-1.348-.781-2.316-.781-.975 0-1.749.26-2.321.781-.572.52-.873 1.269-.902 2.244-.007.213-.011.528-.011.946v.197c.001.315.005.56.011.738.03.997.323 1.749.88 2.255.557.506 1.338.759 2.343.759Zm-5.275-.841c-.524.487-1.332.731-2.425.731H3.607a.255.255 0 0 1-.187-.077.255.255 0 0 1-.077-.187v-7.161a.28.28 0 0 1 .071-.198.25.25 0 0 1 .193-.077h2.684c2.163 0 3.267.997 3.311 2.992.013.365.02.627.022.787v.071c0 .14-.007.422-.022.847-.03 1.027-.306 1.784-.83 2.271Zm-3.877-.545h1.397c.609 0 1.049-.136 1.32-.407.271-.271.414-.722.429-1.353.013-.385.02-.644.022-.776v-.049c0-.117-.007-.389-.022-.814-.015-.601-.165-1.043-.451-1.325-.286-.283-.737-.424-1.353-.424H4.894v5.148Zm7.98-.335c.29.297.68.445 1.172.445.491 0 .88-.147 1.166-.44.286-.293.44-.744.462-1.353.015-.44.022-.737.022-.891a29.1 29.1 0 0 0-.022-.891c-.022-.601-.18-1.05-.473-1.348-.293-.297-.678-.445-1.155-.445-.484 0-.873.148-1.166.445-.293.297-.447.747-.462 1.348a23.2 23.2 0 0 0-.01.672l-.001.219c0 .374.004.671.011.891.015.601.167 1.05.457 1.348Zm8.817 1.721c.653 0 1.221-.112 1.705-.335.484-.224.86-.53 1.127-.919a2.38 2.38 0 0 0 .424-1.309.185.185 0 0 0-.06-.165.243.243 0 0 0-.171-.066h-1.067c-.088 0-.154.02-.198.06a.464.464 0 0 0-.11.215c-.11.455-.303.775-.578.962-.275.188-.632.281-1.072.281-1.049 0-1.595-.587-1.639-1.76a29.508 29.508 0 0 1-.011-.935v-.197c.001-.312.005-.551.011-.716.044-1.173.59-1.76 1.639-1.76.447 0 .807.093 1.078.28.271.188.462.508.572.963.03.103.066.174.11.215.044.04.11.06.198.06h1.067c.059 0 .112-.02.16-.06a.187.187 0 0 0 .071-.149v-.022a2.387 2.387 0 0 0-.424-1.309c-.267-.389-.643-.695-1.127-.918-.484-.224-1.052-.336-1.705-.336-1.005 0-1.786.262-2.343.787-.557.524-.854 1.255-.891 2.194a31.29 31.29 0 0 0-.011.99c0 .447.004.77.011.968.037.953.332 1.688.886 2.205.553.518 1.336.776 2.348.776Zm5.434-.308c-.095.132-.209.198-.341.198H25.64a.23.23 0 0 1-.16-.066.215.215 0 0 1-.071-.165c0-.03.015-.073.044-.132l2.453-3.564-2.299-3.41a.237.237 0 0 1-.044-.132c0-.066.024-.121.072-.165a.23.23 0 0 1 .159-.066h1.155c.132 0 .246.07.341.209l1.606 2.354 1.617-2.354c.08-.14.194-.209.341-.209h1.089a.23.23 0 0 1 .16.066.215.215 0 0 1 .071.165c0 .03-.015.073-.044.132l-2.299 3.41 2.464 3.564a.293.293 0 0 1 .033.132.224.224 0 0 1-.231.231H30.92c-.132 0-.246-.066-.341-.198l-1.738-2.475-1.716 2.475Z" fill="#fff"/>
</svg></svg>