<svg width="39" height="42" fill="none" xmlns="http://www.w3.org/2000/svg"><path fill-rule="evenodd" clip-rule="evenodd" d="M29.541 1 38 9.576V37.19c0 2.104-1.682 3.81-3.758 3.81H10.758C8.682 41 7 39.294 7 37.19V4.81C7 2.706 8.682 1 10.758 1H29.54Z" fill="#fff"/><path fill-rule="evenodd" clip-rule="evenodd" d="M29.995 0 39 9.005V38a4 4 0 0 1-4 4H10a4 4 0 0 1-4-4V4a4 4 0 0 1 4-4h19.995ZM28 1.999 10 2a2 2 0 0 0-1.995 1.85L8 4v34a2 2 0 0 0 1.85 1.995L10 40h25a2 2 0 0 0 1.995-1.85L37 38V11h-5a4 4 0 0 1-4-4l-.001-5.001Zm2 .834L30 7a2 2 0 0 0 1.85 1.995L32 9h4.167l-6.168-6.167Z" fill="#5B85CE"/><path fill-rule="evenodd" clip-rule="evenodd" d="M2 18h30a2 2 0 0 1 2 2v14a2 2 0 0 1-2 2H2a2 2 0 0 1-2-2V20a2 2 0 0 1 2-2Z" fill="#5B85CE"/><path fill-rule="evenodd" clip-rule="evenodd" d="M24.992 30.835c-.473.183-1.021.275-1.645.275-.66 0-1.224-.099-1.694-.297-.469-.198-.825-.458-1.066-.781a1.845 1.845 0 0 1-.386-1.056.23.23 0 0 1 .066-.16.215.215 0 0 1 .166-.071h1c.081 0 .147.018.198.055a.585.585 0 0 1 .143.154c.074.25.24.458.501.627.26.169.618.253 1.073.253.513 0 .9-.086 1.16-.258a.808.808 0 0 0 .39-.71.672.672 0 0 0-.197-.495c-.133-.132-.332-.247-.6-.346a13.992 13.992 0 0 0-1.194-.358c-.865-.205-1.5-.477-1.902-.814-.404-.337-.605-.821-.605-1.452 0-.425.117-.805.352-1.139.234-.333.57-.595 1.006-.786.436-.19.944-.286 1.524-.286.608 0 1.134.106 1.578.319.444.213.781.479 1.012.797.231.32.354.637.369.952a.23.23 0 0 1-.067.16.215.215 0 0 1-.165.071h-1.044c-.162 0-.272-.066-.33-.198-.037-.235-.18-.43-.43-.588-.249-.158-.557-.237-.923-.237-.404 0-.721.077-.952.231-.231.154-.346.378-.346.671 0 .198.058.363.175.495.118.132.301.247.55.346.25.1.613.211 1.09.336.652.147 1.171.312 1.556.495s.67.414.852.693c.184.279.276.634.276 1.067 0 .477-.13.89-.391 1.238-.26.348-.627.614-1.1.797ZM7.683 31c.132 0 .246-.066.341-.198l1.716-2.475 1.739 2.475c.095.132.209.198.34.198h1.177a.224.224 0 0 0 .231-.231.293.293 0 0 0-.033-.132l-2.464-3.564 2.3-3.41a.339.339 0 0 0 .043-.132.215.215 0 0 0-.071-.165.23.23 0 0 0-.16-.066h-1.088c-.147 0-.26.07-.341.209l-1.618 2.354-1.606-2.354c-.095-.14-.209-.209-.34-.209H6.692a.23.23 0 0 0-.159.066.215.215 0 0 0-.072.165c0 .044.015.088.044.132l2.3 3.41-2.454 3.564a.338.338 0 0 0-.044.132c0 .066.024.121.072.165a.23.23 0 0 0 .16.066h1.143Zm11.639 0c.08 0 .146-.026.198-.077a.255.255 0 0 0 .076-.187v-.792a.255.255 0 0 0-.076-.187.268.268 0 0 0-.198-.077h-3.487v-6.116a.26.26 0 0 0-.072-.192.26.26 0 0 0-.193-.072h-1.034a.265.265 0 0 0-.186.072.25.25 0 0 0-.077.192v7.172c0 .073.025.136.077.187a.255.255 0 0 0 .187.077h4.784Z" fill="#fff"/></svg>