<svg width="90" height="41" fill="none" xmlns="http://www.w3.org/2000/svg"><g fill-rule="evenodd" clip-rule="evenodd"><path d="M38.969 14.437v3.756c.482-.499 1.238-.95 2.152-.95 1.962 0 3.499 1.607 3.499 3.658 0 2.044-1.537 3.645-3.499 3.645a2.994 2.994 0 0 1-2.158-.955l-.034-.036v.822h-1.345v-9.94h1.385ZM61.336 37.5v-9.94h-1.385v9.94h1.385Zm10.085-6.964v-1.43h-1.372v1.43h-.916v1.324h.916v3.117c.012.848.287 1.533.797 1.984.419.37.97.562 1.61.562.13 0 .264-.008.4-.024l.122-.014v-1.279l-.146.01-.047.002c-.45.02-.793-.076-1.02-.287-.228-.213-.344-.553-.344-1.01v-3.061h1.53v-1.324h-1.53ZM43.39 32.541c-.021-1.361-1.086-2.173-2.857-2.173-1.772 0-2.97.917-3.054 2.337l-.008.143h1.417l.014-.12.005-.037c.134-.902 1.065-1.038 1.613-1.038h.045c.933.009 1.466.3 1.466.8 0 .328-.234.674-1.948.769l-.107.005c-1.908.1-2.876.85-2.876 2.228 0 1.59 1.372 2.178 2.685 2.201h.08c.926 0 1.683-.257 2.21-.748.03.19.082.364.152.514l.037.079h1.387l-.075-.186-.013-.034a3.47 3.47 0 0 1-.173-1.008V32.541Zm12.067-2.173c1.772 0 2.836.812 2.857 2.173V36.273c0 .3.079.75.174 1.008l.013.034.075.186h-1.387l-.037-.078a1.95 1.95 0 0 1-.153-.515c-.527.491-1.283.749-2.209.749l-.08-.001c-1.313-.023-2.686-.61-2.686-2.201 0-1.379.968-2.128 2.877-2.228l.106-.005c1.714-.095 1.949-.441 1.949-.77 0-.5-.534-.79-1.467-.799h-.045c-.548 0-1.478.136-1.612 1.038l-.005.038-.014.12h-1.417l.008-.144c.083-1.42 1.282-2.337 3.053-2.337Zm34.245 2.172c-.168-1.34-1.266-2.172-2.878-2.172-1.91 0-2.78 1.101-2.78 2.124 0 1.354 1.052 1.776 2.748 2.019l.101.014c1.58.225 1.612.566 1.612.872v.04c-.016.469-.548.935-1.55.935-.934 0-1.621-.451-1.75-1.15l-.02-.11H83.79l.02.152.006.044c.208 1.436 1.435 2.362 3.138 2.362 1.733 0 2.897-.932 2.897-2.32 0-1.625-1.39-1.94-2.606-2.137l-.278-.044c-1.257-.2-1.52-.359-1.537-.68v-.036c0-.449.612-.8 1.394-.8.81 0 1.353.354 1.488.972l.024.106h1.387l-.017-.15-.004-.04Zm-24.227 3.063-1.865-5.066h-1.498l2.63 6.79-.349.924c-.264.695-.58.907-1.303.868l-.076-.005-.146-.01v1.281l.122.013.076.007c.127.012.249.018.366.018 1.125 0 1.815-.534 2.264-1.724l3.09-8.162h-1.483l-1.828 5.066Zm14.547-5.235c1.513 0 2.755.873 3.253 2.281l.016.047.06.178h-1.463l-.038-.073c-.38-.73-1.047-1.148-1.828-1.148-1.173 0-2.127 1.064-2.127 2.372 0 1.294.954 2.347 2.127 2.347.78 0 1.436-.403 1.807-1.108l.02-.039.038-.075h1.463l-.059.178c-.473 1.436-1.725 2.329-3.27 2.329-1.935 0-3.51-1.63-3.51-3.632 0-2.016 1.575-3.657 3.51-3.657Zm-31.85 0c1.64 0 2.705 1.142 2.726 2.915V37.5h-1.372v-4.203c0-1.015-.579-1.645-1.511-1.645-.933 0-1.612.663-1.63 1.583V37.5H45v-6.964h1.346v.52c.482-.447 1.118-.689 1.826-.689Zm27.186.169v6.964h-1.385v-6.964h1.385Zm-20.172 3.888c.628-.044 1.3-.125 1.77-.397v.761l-.001.038c-.048 1.129-1.125 1.532-2.125 1.532-.431 0-1.434-.088-1.434-.904 0-.427.19-.93 1.665-1.021l.125-.009Zm-13.155-.397c-.47.272-1.142.352-1.77.397l-.125.009c-1.475.091-1.665.594-1.665 1.02 0 .817 1.003.905 1.434.905 1 0 2.077-.403 2.125-1.532l.001-.038v-.76Zm33.327-4.233V28.21h-1.385v1.584h1.385Zm-3.793-5.419v-9.94H70.18v3.757l-.028-.029c-.484-.487-1.228-.92-2.125-.92-1.969 0-3.511 1.606-3.511 3.657 0 2.044 1.542 3.645 3.511 3.645.823 0 1.632-.372 2.192-.991v.822h1.346Zm-18.527-7.132c1.77 0 2.835.811 2.857 2.173V23.15c0 .3.078.75.173 1.008l.013.034.075.186h-1.387l-.037-.079a1.944 1.944 0 0 1-.152-.514c-.528.49-1.284.748-2.21.748h-.08c-1.313-.023-2.685-.61-2.685-2.201 0-1.379.967-2.128 2.876-2.228l.107-.005c1.713-.095 1.948-.441 1.948-.77 0-.5-.534-.79-1.466-.8h-.046c-.548 0-1.478.137-1.612 1.04l-.005.037-.014.12h-1.417l.008-.145c.083-1.419 1.282-2.336 3.054-2.336Zm10.364 2.915c-.02-1.773-1.086-2.915-2.726-2.915-.707 0-1.343.242-1.826.689v-.52h-1.345v6.963h1.385v-4.265c.017-.919.697-1.582 1.63-1.582.932 0 1.511.63 1.511 1.644v4.204h1.372v-4.218Zm-14.255-2.906.048.005.12.014v1.355l-.144-.008c-.62-.034-1.16.132-1.52.47-.317.299-.484.712-.494 1.229v4.059h-1.385v-6.964h1.346v.522c.51-.498 1.265-.758 2.03-.682Zm16.754 3.661c0-1.33.934-2.373 2.126-2.373 1.188 0 2.153 1.065 2.153 2.373 0 1.272-.986 2.347-2.153 2.347-1.172 0-2.126-1.053-2.126-2.347Zm-24.78-2.373c-1.187 0-2.152 1.065-2.152 2.373 0 1.272.985 2.347 2.152 2.347 1.166 0 2.114-1.053 2.114-2.347 0-1.33-.929-2.373-2.114-2.373Zm11.582 2.764c.646-.044 1.347-.12 1.833-.401v.761l-.001.038c-.048 1.129-1.125 1.532-2.125 1.532-.431 0-1.434-.088-1.434-.904 0-.428.19-.93 1.665-1.022l.062-.004Z" fill="#fff"/><path d="M30.723 25.749c.028-8.438-6.84-15.326-15.31-15.355-1.31-.004-2.595.16-3.81.464v3.913l.105-.036a11.58 11.58 0 0 1 3.693-.59c6.394.02 11.58 5.22 11.558 11.591 0 .03-.002.058-.003.087l-.002.068h.003l-.024 13.596h3.743l.045-13.304h-.01l.007-.217c.003-.072.005-.144.005-.217Zm-26.958-.124.034-9.986-.07.081A15.2 15.2 0 0 0 0 25.645C-.028 34.084 6.84 40.971 15.31 41a15.386 15.386 0 0 0 9.587-3.319v-5.418l-.063.09a11.603 11.603 0 0 1-9.511 4.897C8.968 37.228 3.81 32.093 3.767 25.777h-.002V25.625Z" fill="#5881C1"/><path d="M9.552.012 5.797 0v25.75h.002l.001.153c.079 5.047 4.18 9.19 9.32 9.32h.045l.17.002a9.55 9.55 0 0 0 6.618-2.607 9.37 9.37 0 0 0 2.97-6.626 9.36 9.36 0 0 0-2.63-6.766 9.542 9.542 0 0 0-6.69-2.943c-2.008-.037-3.915.511-5.536 1.581l-.52.367L9.553.012Zm1.785 21.55a5.831 5.831 0 0 1 4.04-1.591h.008a5.824 5.824 0 0 1 4.208 1.797 5.714 5.714 0 0 1 1.605 4.13 5.719 5.719 0 0 1-1.813 4.046 5.81 5.81 0 0 1-4.17 1.59c-3.22-.081-5.772-2.74-5.691-5.926a5.72 5.72 0 0 1 1.813-4.045Z" fill="#A3CF62"/></g></svg>